<?xml version="1.0" encoding="utf-8"?>
<!-- Generator: Adobe Illustrator 18.0.0, SVG Export Plug-In . SVG Version: 6.00 Build 0)  -->
<!DOCTYPE svg PUBLIC "-//W3C//DTD SVG 1.1//EN" "http://www.w3.org/Graphics/SVG/1.1/DTD/svg11.dtd">
<svg version="1.1" id="Capa_1" xmlns="http://www.w3.org/2000/svg" xmlns:xlink="http://www.w3.org/1999/xlink" x="0px" y="0px"
	 viewBox="0 0 175.8 175.8" enable-background="new 0 0 175.8 175.8" xml:space="preserve">
<path d="M169.5,44.7"/>
<g>
	<g>
		<g>
			<circle fill="#FFFFFF" stroke="#51555A" stroke-width="1.5504" stroke-miterlimit="10" cx="32.4" cy="69.8" r="11.3"/>
			<path fill="#FFFFFF" stroke="#51555A" stroke-width="1.5504" stroke-miterlimit="10" d="M32.4,110.4l6.8,27.1h11.3l-6.8-29.3
				V92.3h4.5c7.5,0,13.5-6.1,13.5-13.5v-18h-9v18c0,2.5-2,4.5-4.5,4.5H16.6c-2.5,0-4.5-2-4.5-4.5v-18H3v18c0,7.5,6.1,13.5,13.5,13.5
				h4.5v15.8l-6.8,29.3h11.3L32.4,110.4z"/>
		</g>
		<g>
			<circle fill="#FFFFFF" stroke="#51555A" stroke-width="1.5504" stroke-miterlimit="10" cx="143.4" cy="69.8" r="11.3"/>
			<path fill="#FFFFFF" stroke="#51555A" stroke-width="1.5504" stroke-miterlimit="10" d="M143.4,110.4l6.8,27.1h11.3l-6.8-29.3
				V92.3h4.5c7.5,0,13.5-6.1,13.5-13.5v-18h-9v18c0,2.5-2,4.5-4.5,4.5h-31.6c-2.5,0-4.5-2-4.5-4.5v-18h-9v18
				c0,7.5,6.1,13.5,13.5,13.5h4.5v15.8l-6.8,29.3h11.3L143.4,110.4z"/>
		</g>
	</g>
	<g>
		<g>
			<circle fill="#FF6334" cx="87.7" cy="52.3" r="14"/>
			<path fill="#FF6334" d="M87.7,102.5l8.4,33.5h14l-8.4-36.3V80.2h5.6c9.2,0,16.7-7.5,16.7-16.7V41.1h-11.2v22.3
				c0,3.1-2.5,5.6-5.6,5.6H68.2c-3.1,0-5.6-2.5-5.6-5.6V41.1H51.4v22.3c0,9.2,7.5,16.7,16.7,16.7h5.6v19.5L65.4,136h14L87.7,102.5z"
				/>
		</g>
	</g>
</g>
</svg>
