<?xml version="1.0" encoding="utf-8"?>
<!-- Generator: Adobe Illustrator 18.0.0, SVG Export Plug-In . SVG Version: 6.00 Build 0)  -->
<!DOCTYPE svg PUBLIC "-//W3C//DTD SVG 1.1//EN" "http://www.w3.org/Graphics/SVG/1.1/DTD/svg11.dtd">
<svg version="1.1" id="Capa_1" xmlns="http://www.w3.org/2000/svg" xmlns:xlink="http://www.w3.org/1999/xlink" x="0px" y="0px"
	 viewBox="0 0 175.8 175.8" enable-background="new 0 0 175.8 175.8" xml:space="preserve">
<g>
	<path fill="#FF6334" d="M87.9,42.4c1.7,0,3.1-1.4,3.1-3.1V20.6c0-1.7-1.4-3.1-3.1-3.1c-1.7,0-3.1,1.4-3.1,3.1v18.7
		C84.7,41,86.1,42.4,87.9,42.4z"/>
	<path fill="#FF6334" d="M65.7,48.6c0.6,0.6,1.4,0.9,2.2,0.9c0.8,0,1.6-0.3,2.2-0.9c1.2-1.2,1.2-3.2,0-4.4l-7.5-7.5
		c-1.2-1.2-3.2-1.2-4.4,0c-1.2,1.2-1.2,3.2,0,4.4L65.7,48.6z"/>
	<path fill="#FF6334" d="M107.4,50.1c0.8,0,1.6-0.3,2.2-0.9l8-8c1.2-1.2,1.2-3.2,0-4.4c-1.2-1.2-3.2-1.2-4.4,0l-8,8
		c-1.2,1.2-1.2,3.2,0,4.4C105.8,49.8,106.6,50.1,107.4,50.1z"/>
	<path fill="#51555A" stroke="#FFFFFF" stroke-width="2" stroke-miterlimit="10" d="M147.7,93.1h-2.5c2.1-2.7,3.3-6.1,3.3-9.7v-4.4
		c0-8.8-7.2-16-16-16s-16,7.2-16,16v3.4L92.8,58.8c-1.3-1.3-3.2-1.7-5-1.1c-1.7-0.6-3.7-0.2-5,1.1L59.3,82.4v-3.4
		c0-8.8-7.2-16-16-16s-16,7.2-16,16v4.4c0,3.7,1.2,7,3.3,9.7h-2.5c-11.3,0-20.6,9.2-20.6,20.6v41.6c0,1.7,1.4,3.1,3.1,3.1h13.3
		c0.3,0,0.6,0,0.9-0.1c0.3,0.1,0.6,0.1,0.9,0.1h35.1c1.7,0,3.1-1.4,3.1-3.1v-10.7c0-1.7-1.4-3.1-3.1-3.1c-1.7,0-3.1,1.4-3.1,3.1v7.5
		H28.9v-35.8c0-1.7-1.4-3.1-3.1-3.1s-3.1,1.4-3.1,3.1v35.8h-8.8v-38.4c0-7.9,6.4-14.3,14.3-14.3h21.8c0.9,0,1.6-0.3,2.2-0.9
		c0,0,0,0,0,0l32.6-32.6c-0.2,6.5-2.2,12.8-5.9,18.2l-20.5,30.5c-0.3,0.5-0.5,1.1-0.5,1.8v3.4c0,1.7,1.4,3.1,3.1,3.1
		c1.7,0,3.1-1.4,3.1-3.1v-2.5l20-29.7c1.5-2.3,2.8-4.7,3.8-7.2c1,2.5,2.3,4.9,3.8,7.2l20,29.7v37.9c0,1.7,1.4,3.1,3.1,3.1H150
		c0.3,0,0.6,0,0.9-0.1c0.3,0.1,0.6,0.1,0.9,0.1h13.3c1.7,0,3.1-1.4,3.1-3.1v-41.6C168.2,102.3,159,93.1,147.7,93.1z M33.6,83.4v-4.4
		c0-5.4,4.4-9.7,9.7-9.7s9.7,4.4,9.7,9.7v4.4c0,5.4-4.4,9.7-9.7,9.7S33.6,88.7,33.6,83.4z M122.7,78.9c0-5.4,4.4-9.7,9.7-9.7
		c5.4,0,9.7,4.4,9.7,9.7v4.4c0,5.4-4.4,9.7-9.7,9.7c-5.4,0-9.7-4.4-9.7-9.7V78.9z M161.9,152.1h-8.8v-23.2c0-1.7-1.4-3.1-3.1-3.1
		s-3.1,1.4-3.1,3.1v23.2H118v-35.8c0-0.6-0.2-1.2-0.5-1.8L96.9,84.1c-3.7-5.4-5.7-11.7-5.9-18.2l32.6,32.6c0,0,0.1,0.1,0.1,0.1
		c0.6,0.5,1.3,0.8,2.1,0.8h21.8c7.9,0,14.3,6.4,14.3,14.3V152.1L161.9,152.1z"/>
	<path fill="#51555A" stroke="#FFFFFF" stroke-width="2" stroke-miterlimit="10" d="M150,113.2c-0.8,0-1.6,0.3-2.2,0.9
		c-0.6,0.6-0.9,1.4-0.9,2.2s0.3,1.6,0.9,2.2c0.6,0.6,1.4,0.9,2.2,0.9s1.6-0.3,2.2-0.9c0.6-0.6,0.9-1.4,0.9-2.2s-0.3-1.6-0.9-2.2
		C151.6,113.5,150.8,113.2,150,113.2z"/>
	<path fill="#51555A" stroke="#FFFFFF" stroke-width="2" stroke-miterlimit="10" d="M60.9,129.8c-0.8,0-1.6,0.3-2.2,0.9
		s-0.9,1.4-0.9,2.2s0.3,1.6,0.9,2.2s1.4,0.9,2.2,0.9c0.8,0,1.6-0.3,2.2-0.9c0.6-0.6,0.9-1.4,0.9-2.2s-0.3-1.6-0.9-2.2
		C62.5,130.1,61.7,129.8,60.9,129.8z"/>
</g>
</svg>
